<?xml version="1.0" encoding="UTF-8" standalone="no" ?>
<!DOCTYPE svg PUBLIC "-//W3C//DTD SVG 1.1//EN" "http://www.w3.org/Graphics/SVG/1.1/DTD/svg11.dtd">
<svg xmlns="http://www.w3.org/2000/svg" xmlns:xlink="http://www.w3.org/1999/xlink" version="1.1" width="162" height="162" viewBox="0 0 162 162" xml:space="preserve">
<desc>Created with Fabric.js 5.3.0</desc>
<defs>
</defs>
<g transform="matrix(1 0 0 0.4811015105 81 62.8491230726)" id="QX9CMFx6r-VxaL2SVOmRN"  >
<path style="stroke: rgb(197,0,0); stroke-width: 20; stroke-dasharray: none; stroke-linecap: butt; stroke-dashoffset: 0; stroke-linejoin: miter; stroke-miterlimit: 4; fill: rgb(255,255,255); fill-opacity: 0; fill-rule: nonzero; opacity: 1;"  transform=" translate(0, 0)" d="M 0 -47.51552 C 26.22857 -47.51552 47.51552 -26.22857 47.51552 0 C 47.51552 26.22857 26.22857 47.51552 0 47.51552 C -26.22857 47.51552 -47.51552 26.22857 -47.51552 0 C -47.51552 -26.22857 -26.22857 -47.51552 0 -47.51552 z" stroke-linecap="round" />
</g>
<g transform="matrix(1 0 0 0.4811015105 80.9999967122 94.5352544595)" id="VCGOzLKzIIxLwPw4cE-pB"  >
<path style="stroke: rgb(197,0,0); stroke-width: 20; stroke-dasharray: none; stroke-linecap: butt; stroke-dashoffset: 0; stroke-linejoin: miter; stroke-miterlimit: 4; fill: rgb(255,255,255); fill-opacity: 0; fill-rule: nonzero; opacity: 1;"  transform=" translate(0, 0)" d="M 0 -47.51552 C 26.22857 -47.51552 47.51552 -26.22857 47.51552 0 C 47.51552 26.22857 26.22857 47.51552 0 47.51552 C -26.22857 47.51552 -47.51552 26.22857 -47.51552 0 C -47.51552 -26.22857 -26.22857 -47.51552 0 -47.51552 z" stroke-linecap="round" />
</g>
<g transform="matrix(1 0 0 0.4811015105 81.0000032878 127.0170045915)" id="gEG_slTKyyyDtyigd8MMT"  >
<path style="stroke: rgb(197,0,0); stroke-width: 20; stroke-dasharray: none; stroke-linecap: butt; stroke-dashoffset: 0; stroke-linejoin: miter; stroke-miterlimit: 4; fill: rgb(255,255,255); fill-opacity: 0; fill-rule: nonzero; opacity: 1;"  transform=" translate(0, 0)" d="M 0 -47.51552 C 26.22857 -47.51552 47.51552 -26.22857 47.51552 0 C 47.51552 26.22857 26.22857 47.51552 0 47.51552 C -26.22857 47.51552 -47.51552 26.22857 -47.51552 0 C -47.51552 -26.22857 -26.22857 -47.51552 0 -47.51552 z" stroke-linecap="round" />
</g>
<g transform="matrix(0.0879122494 0 0 1.0853658763 26.1154270493 94.5352544595)" id="gXX4vb-_S0WalpWKyyYMs"  >
<path style="stroke: rgb(197,0,0); stroke-width: 0; stroke-dasharray: none; stroke-linecap: butt; stroke-dashoffset: 0; stroke-linejoin: miter; stroke-miterlimit: 4; fill: rgb(197,0,0); fill-rule: nonzero; opacity: 1;"  transform=" translate(0, 0)" d="M -29.92701 -29.92701 L 29.927000000000003 -29.92701 L 29.927000000000003 29.927000000000003 L -29.92701 29.927000000000003 z" stroke-linecap="round" />
</g>
<g transform="matrix(0.0778502608 0 0 1.0853658763 136.1856915907 94.5352543342)" id="xVF-68Ts17hyar5hRvUFA"  >
<path style="stroke: rgb(197,0,0); stroke-width: 0; stroke-dasharray: none; stroke-linecap: butt; stroke-dashoffset: 0; stroke-linejoin: miter; stroke-miterlimit: 4; fill: rgb(197,0,0); fill-rule: nonzero; opacity: 1;"  transform=" translate(0, 0)" d="M -29.92701 -29.92701 L 29.927000000000003 -29.92701 L 29.927000000000003 29.927000000000003 L -29.92701 29.927000000000003 z" stroke-linecap="round" />
</g>
<g transform="matrix(0.7840450104 0 0 0.6506189495 82.6872890889 45.1229355677)" id="sbdEFjWVIaeZbPCl-FXrT"  >
<path style="stroke: rgb(197,0,0); stroke-width: 0; stroke-dasharray: none; stroke-linecap: butt; stroke-dashoffset: 0; stroke-linejoin: miter; stroke-miterlimit: 4; fill: rgb(255,255,255); fill-rule: nonzero; opacity: 1;"  transform=" translate(0, 0)" d="M 0 -20.24291 C 11.17409 -20.24291 20.24291 -11.174079999999998 20.24291 0 C 20.24291 11.17409 11.174079999999998 20.24291 0 20.24291 C -11.17409 20.24291 -20.24291 11.174079999999998 -20.24291 0 C -20.24291 -11.17409 -11.174079999999998 -20.24291 0 -20.24291 z" stroke-linecap="round" />
</g>
<g transform="matrix(0.3510619624 0 0 0.3938341778 82.6623427342 23.2624760593)" id="RrI5UTPGROiAIrMUQ_sAF"  >
<path style="stroke: none; stroke-width: 1; stroke-dasharray: none; stroke-linecap: butt; stroke-dashoffset: 0; stroke-linejoin: miter; stroke-miterlimit: 4; fill: rgb(255,255,255); fill-rule: nonzero; opacity: 1;"  transform=" translate(-40, -40)" d="M 60 40 L 80 80 L 40 80 L 0 80 L 20 40 L 40 0 L 60 40 z" stroke-linecap="round" />
</g>
</svg>